<?xml version="1.0" encoding="UTF-8"?>
<svg id="Layer_2" data-name="Layer 2" xmlns="http://www.w3.org/2000/svg" viewBox="0 0 908.38 265.21">
  <defs>
    <style>
      .cls-1 {
      fill: #8fd7ff;
      }

      .cls-1, .cls-2 {
      stroke-width: 0px;
      }

      .cls-2 {
      fill: #b598ce;
      }
    </style>
  </defs>
  <g id="Layer_1-2" data-name="Layer 1">
    <g>
      <path class="cls-2"
        d="m41.05,194.7c-11.12-.14-20.17-2.95-27.14-8.47-6.99-5.57-11.62-12.97-13.91-22.17,1.28-2.47,3.31-4.42,6.12-5.9,2.79-1.52,5.44-2.14,7.96-1.9,2.05,7.04,5.49,12.37,10.3,15.99,4.8,3.62,10.64,5.38,17.51,5.23,7.31-.12,13.19-2.28,17.67-6.47,4.46-4.23,6.7-9.99,6.7-17.22,0-11.09-5.09-18.27-15.25-21.51l-22.87-7.23c-8-2.52-14.28-6.95-18.85-13.23-4.59-6.33-6.87-13.85-6.87-22.55,0-7.8,1.72-14.75,5.19-20.84,3.52-6.14,8.31-10.94,14.41-14.37,6.14-3.43,13.17-5.14,21.11-5.14,8.75,0,16.67,2.14,23.71,6.38,7.04,4.19,11.98,9.71,14.83,16.56-1.01,2.09-2.68,4.16-5.03,6.19-2.35,2.05-4.9,3.57-7.62,4.57-5.65-11.04-14.47-16.56-26.47-16.56-7.1,0-12.88,2.07-17.34,6.19-4.42,4.07-6.62,9.33-6.62,15.8,0,10.42,5.88,17.51,17.67,21.32l20.19,6.19c8.15,2.47,14.51,7.09,19.1,13.8,4.57,6.66,6.87,14.73,6.87,24.17,0,8.37-1.82,15.68-5.44,21.89-3.58,6.23-8.5,11.01-14.74,14.37-6.26,3.28-13.32,4.95-21.19,4.95Z" />
      <path class="cls-2"
        d="m206.54,180.62c-.78-1.63-2.06-2.46-3.87-2.48h-.06c-3.86,0-6.62-1.66-8.3-5.04-1.67-3.43-2.51-8.9-2.51-16.47v-16.74c0-11.54-2.55-20.75-7.62-27.6-5.09-6.9-11.94-10.37-20.52-10.37-1.24,0-2.5.07-3.77.19,4.79-10.4,8.62-21.25,11.47-32.55,2.89-11.27,4.36-21.55,4.36-30.83,0-11.42-2.33-20.67-6.95-27.78C164.12,3.79,157.67.15,149.42,0c-9.05-.12-15.98,3.33-20.78,10.38-4.82,6.99-7.2,16.98-7.2,29.97v103.06c-5.82,12.63-11.06,21.58-15.75,26.83-4.69,5.28-9.61,7.9-14.74,7.9-1.85,0-3.29.76-4.36,2.28-1.11,1.48-1.68,3.5-1.68,6.09s.49,4.48,1.43,6c.9,1.57,2.09,2.38,3.6,2.38,6.37,0,12-1.48,16.92-4.38,4.9-2.9,9.76-7.94,14.58-15.13v16.75c2.55.88,5.11,1.33,7.62,1.33,1.21,0,2.51-.14,3.85-.38,1.39-.26,2.68-.57,3.86-.95v-33.69c.1-7.8,1.25-14.68,3.43-20.65,2.18-6.02,5.07-10.75,8.71-14.18,3.69-3.42,7.81-5.13,12.4-5.13s8.31,1.88,10.89,5.61c2.56,3.69,3.85,8.83,3.85,15.42v20.65c0,11.03,2.18,19.6,6.54,25.69,4.4,6.04,10.74,9.04,19.01,9.04,1.95,0,3.46-.76,4.53-2.28,1.11-1.46,1.67-3.43,1.67-5.9s-.42-4.5-1.26-6.09Zm-57.04-92.31c-3.69,9.09-8.11,18.08-13.24,27.03V40.16c0-15.99,4.15-23.98,12.49-23.98,4.02,0,7.07,1.9,9.21,5.71,2.11,3.81,3.18,9.37,3.18,16.65s-1,14.82-3.01,23.32c-2.01,8.51-4.9,17.32-8.63,26.45Z" />
      <path class="cls-2"
        d="m268.36,151.4c4.29-6.9,6.45-14.51,6.45-22.84,0-6.09-1.09-11.44-3.27-16.08-2.18-4.69-5.23-8.37-9.13-11.04-3.85-2.66-8.29-3.99-13.32-3.99-5.99,0-11.31,1.78-16,5.32-4.69,3.57-8.35,8.45-10.97,14.66-2.64,6.16-3.94,13.27-3.94,21.32,0,11.94,2.22,22.33,6.7,31.21-4.58,2.99-8.6,5.11-12.06,6.37-3.41,1.22-6.76,1.81-10.05,1.81h-.1c-4.06.05-6.1,2.86-6.1,8.37,0,2.48.48,4.48,1.42,6,.9,1.57,2.1,2.38,3.61,2.38,10.05,0,20.54-3.9,31.49-11.71,3.23,3.62,7.25,6.48,12.06,8.57,4.8,2.09,9.93,3.14,15.42,3.14,1.95,0,3.43-.74,4.44-2.19,1.04-1.38,1.59-3.33,1.59-5.8,0-2.6-.48-4.67-1.42-6.19-.91-1.57-2.16-2.38-3.77-2.38-6.16,0-11.06-1.52-14.75-4.57,10.22-7.99,17.45-15.44,21.7-22.36Zm-30.41,10.37c-3.25-6.13-4.86-14.37-4.86-24.64,0-6.59,1.45-12.14,4.36-16.66,2.95-4.56,6.66-6.85,11.14-6.85,3.52,0,6.28,1.34,8.29,4,2.01,2.66,3.02,6.33,3.02,10.94,0,5.09-1.82,10.42-5.45,15.99-3.58,5.59-9.09,11.32-16.5,17.22Z" />
      <path class="cls-2"
        d="m344.17,151.4c4.29-6.9,6.45-14.51,6.45-22.84,0-6.09-1.09-11.44-3.27-16.08-2.18-4.69-5.23-8.37-9.13-11.04-3.85-2.66-8.29-3.99-13.32-3.99-5.99,0-11.31,1.78-16,5.32-4.69,3.57-8.35,8.45-10.97,14.66-2.64,6.16-3.94,13.27-3.94,21.32,0,11.94,2.22,22.33,6.7,31.21-4.58,2.99-8.6,5.11-12.06,6.37-3.41,1.22-6.76,1.81-10.05,1.81-4.13,0-6.2,2.81-6.2,8.37,0,2.48.48,4.48,1.42,6,.9,1.57,2.1,2.38,3.6,2.38,10.06,0,20.55-3.9,31.5-11.71,3.23,3.62,7.25,6.48,12.06,8.57,4.8,2.09,9.93,3.14,15.42,3.14,1.94,0,3.43-.74,4.44-2.19,1.04-1.38,1.59-3.33,1.59-5.8,0-2.6-.48-4.67-1.43-6.19-.9-1.57-2.15-2.38-3.77-2.38-6.15,0-11.05-1.52-14.74-4.57,10.22-7.99,17.45-15.44,21.7-22.36Zm-30.41,10.37c-3.25-6.13-4.86-14.37-4.86-24.64,0-6.59,1.45-12.14,4.36-16.66,2.95-4.56,6.66-6.85,11.14-6.85,3.52,0,6.28,1.34,8.29,4,2.01,2.66,3.02,6.33,3.02,10.94,0,5.09-1.83,10.42-5.45,15.99-3.58,5.59-9.09,11.32-16.5,17.22Z" />
      <path class="cls-2"
        d="m353.22,194.89c-1.51,0-2.7-.81-3.6-2.38-.94-1.52-1.42-3.52-1.42-6,0-5.57,2.07-8.37,6.2-8.37,5.03,0,9.49-2.38,13.4-7.14,3.96-4.76,7.12-11.23,9.47-19.41,2.35-8.18,3.52-17.27,3.52-27.31,0-2.33-.13-4.47-.34-6.38-.23-1.95-.5-3.57-.84-4.85-1.01-1.19-2.14-3.09-3.35-5.71-1.17-2.59-2.22-5.35-3.1-8.28-.84-2.9-1.26-5.28-1.26-7.14,1.34-2.47,3.52-4.38,6.53-5.71,3.06-1.38,6.45-1.74,10.14-1.05,2.12,4.52,3.87,10.23,5.28,17.13,3.39-.12,8.04-.98,13.91-2.57,3.62-.88,6.55-1.47,8.8-1.81,2.22-.31,4.15-.48,5.78-.48,6.2,0,11.06,2.64,14.58,7.9,3.56,5.28,5.36,12.37,5.36,21.32v31.4c0,7.49.86,12.73,2.6,15.7,1.78,2.93,4.38,4.38,7.79,4.38,1.61,0,2.85.81,3.69,2.38.88,1.52,1.34,3.59,1.34,6.19,0,2.05-.5,3.9-1.51,5.61-.96,1.71-2.51,2.57-4.69,2.57-6.99,0-12.88-2.71-17.67-8.09-4.82-5.38-7.2-14.27-7.2-26.64v-30.17c0-5.83-.59-9.92-1.76-12.28-1.13-2.33-3.16-3.52-6.12-3.52-1.01,0-2.16.14-3.43.38-1.3.26-3.52.76-6.7,1.52-5.59,1.33-9.8,2.14-12.65,2.38.1,2.09.17,4.16.17,6.19,0,14.08-1.8,26.41-5.36,36.92-3.52,10.47-8.52,18.65-14.99,24.55-6.49,5.85-13.99,8.75-22.53,8.75Z" />
      <path class="cls-1"
        d="m452,194.89c-1.84,0-3.2-.9-4.1-2.66-.94-1.76-1.42-3.66-1.42-5.71,0-2.21.54-4.14,1.59-5.8,1.01-1.71,2.66-2.57,4.94-2.57,3.9,0,7.48-1.95,10.72-5.9,3.23-4,6.2-9.09,8.88-15.32,2.72-6.28,5.19-12.94,7.37-19.98,1.78-5.95,3.77-12.18,5.95-18.65,2.18-6.52,4.02-12.89,5.53-19.13,2.28-.62,4.96-.88,8.04-.76,3.06.14,5.63.71,7.71,1.71l1.09,13.51c6.14-10.78,14.35-16.18,24.63-16.18,8.48,0,15.18,3.38,20.1,10.09,4.9,6.66,7.37,15.89,7.37,27.69v22.84c0,7.49.88,12.73,2.68,15.7,1.78,2.93,4.38,4.38,7.79,4.38,1.61,0,2.85.81,3.69,2.38.84,1.52,1.26,3.59,1.26,6.19,0,2.05-.48,3.9-1.42,5.61-.96,1.71-2.51,2.57-4.69,2.57-6.99,0-12.88-2.71-17.67-8.09-4.82-5.38-7.2-14.27-7.2-26.64v-24.93c0-14.01-4.52-21.03-13.57-21.03-4.02,0-7.71,1.76-11.06,5.23-3.31,3.5-5.91,8.16-7.79,13.99-1.84,5.78-2.76,12.23-2.76,19.32v111.15c-1.17.38-2.47.69-3.85.95-1.34.24-2.64.38-3.85.38-2.74,0-5.36-.45-7.87-1.33v-123.8l-.75,2.19c-3.18,10.42-6.6,19.58-10.22,27.5-3.58,7.87-7.83,14.04-12.73,18.46-4.92,4.42-11.04,6.66-18.35,6.66Z" />
      <path class="cls-1"
        d="m636.43,151.4c4.29-6.9,6.45-14.51,6.45-22.84,0-6.09-1.09-11.44-3.27-16.08-2.18-4.69-5.24-8.37-9.13-11.04-3.85-2.66-8.29-3.99-13.32-3.99-5.99,0-11.31,1.78-16,5.32-4.69,3.57-8.36,8.45-10.97,14.66-2.64,6.16-3.94,13.27-3.94,21.32,0,11.94,2.22,22.33,6.7,31.21-4.59,2.99-8.61,5.11-12.06,6.37-3.41,1.22-6.76,1.81-10.03,1.81h-.02c-4.13,0-6.2,2.81-6.2,8.37,0,2.48.48,4.48,1.42,6,.9,1.57,2.09,2.38,3.59,2.38h.06c10.04-.01,20.52-3.91,31.45-11.71,3.23,3.62,7.25,6.48,12.06,8.57,4.8,2.09,9.93,3.14,15.42,3.14,1.94,0,3.43-.74,4.44-2.19,1.04-1.38,1.59-3.33,1.59-5.8,0-2.6-.48-4.67-1.43-6.19-.9-1.57-2.15-2.38-3.77-2.38-6.15,0-11.05-1.52-14.74-4.57,10.22-7.99,17.44-15.44,21.7-22.36Zm-30.41,10.37c-3.25-6.13-4.86-14.37-4.86-24.64,0-6.59,1.45-12.14,4.36-16.66,2.95-4.56,6.66-6.85,11.14-6.85,3.52,0,6.28,1.34,8.29,4,2.01,2.66,3.02,6.33,3.02,10.94,0,5.09-1.83,10.42-5.45,15.99-3.58,5.59-9.09,11.32-16.5,17.22Z" />
      <path class="cls-1"
        d="m759.98,180.9c-.67-1.83-1.97-2.76-3.85-2.76h-.06c-4.45-.02-7.62-1.92-9.49-5.71-1.91-3.85-2.85-9.25-2.85-16.18v-57.09c-2.41-.88-4.98-1.33-7.71-1.33-1.5,0-2.97.14-4.35.38-1.34.26-2.51.57-3.52.95v7.99c-2.64-2.97-5.9-5.33-9.8-7.04-3.92-1.76-7.85-2.66-11.81-2.66-7.54,0-14.28,2.23-20.19,6.66-5.86,4.37-10.53,10.42-13.99,18.08-3.41,7.68-5.11,16.44-5.11,26.26,0,1.86.04,3.69.17,5.52-2.51,7.38-5.65,13.23-9.38,17.6-3.69,4.38-7.5,6.57-11.39,6.57-4.13,0-6.2,2.81-6.2,8.37,0,2.48.48,4.48,1.42,6,.9,1.57,2.09,2.38,3.6,2.38,11.5,0,20.8-6.23,27.9-18.75,3.22,5.85,7.39,10.45,12.48,13.8,5.07,3.28,10.93,4.95,17.59,4.95,6.03,0,11.52-1.52,16.5-4.57,5.03-3.09,9.17-7.33,12.48-12.65,3.79,11.49,11.27,17.22,22.45,17.22h.03c.12,0,.25,0,.37-.01,1.97-.1,3.39-.96,4.29-2.56,1.01-1.71,1.51-3.57,1.51-5.61s-.38-4.03-1.09-5.81Zm-31.83-35.78c0,9.9-2.22,17.89-6.62,23.98-4.42,6.04-10.22,9.04-17.42,9.04-6.53,0-11.69-2.62-15.41-7.9-3.69-5.25-5.53-12.51-5.53-21.79,0-6.59,1.09-12.46,3.26-17.6,2.18-5.14,5.14-9.19,8.88-12.18,3.79-2.98,8.15-4.48,13.07-4.48,3.79,0,7.46,1.1,10.98,3.24,3.56,2.09,6.49,4.92,8.79,8.47v19.22Z" />
      <path class="cls-1"
        d="m756.07,178.14c3.79,0,7.48-2.02,11.06-6.09,3.62-4.12,6.7-9.63,9.21-16.56-.5-3.24-.75-6.52-.75-9.9,0-9.63,1.7-18.03,5.11-25.22,3.46-7.23,8.06-12.85,13.82-16.84,5.8-4.04,12.15-6.09,19.02-6.09,5.7,0,10.76,1.24,15.25,3.71,4.46,2.43,7.96,5.4,10.47,8.94-.34,1.97-1.47,4.28-3.35,6.95-1.84,2.62-3.64,4.52-5.36,5.71-1.97-2.33-4.31-4.33-7.04-6-2.74-1.71-6.01-2.57-9.8-2.57s-7.37,1.14-10.72,3.43c-3.35,2.24-6.09,5.66-8.21,10.28-2.14,4.64-3.18,10.54-3.18,17.7,0,4.76.77,9.68,2.35,14.75,1.61,5.09,4.46,9.37,8.54,12.85,4.06,3.43,9.65,5.14,16.75,5.14,1.68,0,2.93.93,3.77,2.76.88,1.78,1.34,3.71,1.34,5.8s-.5,3.88-1.51,5.52c-.96,1.64-2.51,2.47-4.69,2.47-8.33,0-15.39-1.81-21.19-5.42-5.76-3.66-10.35-8.37-13.74-14.08-7.1,13.01-16.54,19.51-28.31,19.51-1.51,0-2.7-.81-3.6-2.38-.94-1.52-1.42-3.52-1.42-6,0-5.57,2.07-8.37,6.2-8.37Z" />
      <path class="cls-1"
        d="m901.93,151.4c4.29-6.9,6.45-14.51,6.45-22.84,0-6.09-1.09-11.44-3.27-16.08-2.18-4.69-5.23-8.37-9.13-11.04-3.85-2.66-8.29-3.99-13.32-3.99-5.99,0-11.31,1.78-16,5.32-4.69,3.57-8.35,8.45-10.97,14.66-2.64,6.16-3.94,13.27-3.94,21.32,0,11.94,2.22,22.33,6.7,31.21-4.58,2.99-8.6,5.11-12.06,6.37-3.41,1.22-6.76,1.81-10.05,1.81-4.13,0-6.2,2.81-6.2,8.37,0,2.48.48,4.48,1.42,6,.9,1.57,2.1,2.38,3.61,2.38,10.05,0,20.54-3.9,31.49-11.71,3.23,3.62,7.25,6.48,12.07,8.57,4.79,2.09,9.92,3.14,15.41,3.14,1.95,0,3.43-.74,4.44-2.19,1.05-1.38,1.59-3.33,1.59-5.8,0-2.6-.48-4.67-1.42-6.19-.9-1.57-2.16-2.38-3.77-2.38-6.16,0-11.06-1.52-14.75-4.57,10.22-7.99,17.45-15.44,21.7-22.36Zm-30.41,10.37c-3.24-6.13-4.86-14.37-4.86-24.64,0-6.59,1.45-12.14,4.36-16.66,2.95-4.56,6.66-6.85,11.14-6.85,3.52,0,6.28,1.34,8.29,4,2.01,2.66,3.02,6.33,3.02,10.94,0,5.09-1.82,10.42-5.45,15.99-3.58,5.59-9.09,11.32-16.5,17.22Z" />
    </g>
  </g>
</svg>